# xmcd CD database file
#
# Track frame offsets:
#	150
#	19335
#	41905
#
# Disc length: 814 seconds
#
# Revision: 0
# Processed by: cddbd v1.5.1PL0 Copyright (c) Steve Scherf et al.
# Submitted via: CDex 1.51
#
DISCID=22032c03
DTITLE=浅田祐介 - globe in your hands
DYEAR=1995
DGENRE=JPop
TTITLE0=TIME
TTITLE1=EVERYDAY SUNSHINE
TTITLE2=TIME
EXTD=YEAR: 1995
EXTT0=
EXTT1=
EXTT2=
PLAYORDER=
